<svg width="109" height="113" viewBox="0 0 109 113" fill="none" xmlns="http://www.w3.org/2000/svg">
<g clip-path="url(#clip0_1_30)">
<path opacity="0.8" d="M54.3114 113C84.165 113 108.366 88.7989 108.366 58.9454C108.366 29.0918 84.165 4.89069 54.3114 4.89069C24.4579 4.89069 0.256775 29.0918 0.256775 58.9454C0.256775 88.7989 24.4579 113 54.3114 113Z" fill="url(#paint0_radial_1_30)"/>
<path d="M37.5809 75.1617C58.3362 75.1617 75.1617 58.3362 75.1617 37.5809C75.1617 16.8255 58.3362 0 37.5809 0C16.8255 0 0 16.8255 0 37.5809C0 58.3362 16.8255 75.1617 37.5809 75.1617Z" fill="url(#paint1_linear_1_30)"/>
<path d="M39.6407 44.2734C39.6407 45.303 39.3833 46.3326 38.8685 47.3622C38.3537 48.1344 37.8389 48.9066 37.0667 49.4214C36.2944 49.9362 35.2648 50.451 34.2352 50.7085C33.2056 51.2233 32.176 51.4807 30.889 51.4807H17.7614V24.1959H32.176C33.2056 24.1959 33.9778 24.4533 34.75 24.7107C35.5222 25.2255 36.037 25.7403 36.8092 26.2551C37.3241 27.0274 37.8389 27.5422 38.0963 28.5718C38.3537 29.344 38.6111 30.1162 38.6111 31.1458C38.6111 32.4328 38.3537 33.7198 37.5815 34.7495C36.8092 36.0365 36.037 36.8087 34.75 37.3235C36.2944 37.8383 37.5815 38.6105 38.3537 39.8975C39.3833 41.1845 39.6407 42.729 39.6407 44.2734ZM23.1669 28.8292V35.7791H30.1168C30.889 35.7791 31.6612 35.5217 32.4334 34.7495C32.9482 34.2346 33.463 33.205 33.463 32.1754C33.463 31.1458 33.2056 30.3736 32.6908 29.6014C32.176 29.0866 31.4038 28.5718 30.6316 28.5718H23.1669V28.8292ZM34.4926 43.5012C34.4926 42.9864 34.4926 42.4715 34.2352 42.2141C33.9778 41.6993 33.7204 41.4419 33.463 40.9271C33.2056 40.6697 32.9482 40.4123 32.4334 40.1549C32.176 39.8975 31.6612 39.8975 31.1464 39.8975H23.1669V47.1048H30.889C31.4038 47.1048 31.9186 47.1048 32.176 46.8474C32.6908 46.59 32.9482 46.3326 33.2056 46.0752C33.463 45.8178 33.7204 45.303 33.9778 45.0456C34.2352 44.2734 34.4926 44.016 34.4926 43.5012Z" fill="white"/>
<path d="M51.2232 51.4806C49.6788 51.4806 48.1344 51.2232 47.1048 50.7084C44.5307 49.6788 42.7289 47.8769 41.9567 45.3029C41.4419 44.0159 41.1845 42.7289 41.1845 41.4419C41.1845 40.1548 41.4419 38.8678 41.9567 37.5808C42.9863 35.0068 44.7882 33.205 47.1048 32.1753C48.3918 31.6605 49.6788 31.4031 51.4806 31.4031C53.0251 31.4031 54.5695 31.6605 55.5991 32.1753C59.7175 33.9772 61.5194 37.8382 61.5194 42.2141C61.5194 42.4715 61.5194 42.7289 61.5194 42.9863H46.59C46.59 43.7585 46.8474 44.5307 47.1048 45.0455C47.3622 45.5603 47.877 46.0751 48.1344 46.5899C48.6492 47.1047 49.164 47.3621 49.6788 47.6195C50.1936 47.8769 50.9658 47.8769 51.4806 47.8769C52.5102 47.8769 53.2825 47.6195 54.3121 47.1047C55.0843 46.5899 55.8565 46.0751 56.1139 45.3029L60.4897 46.5899C59.7175 48.1343 58.6879 49.164 57.1435 50.1936C55.0843 50.9658 53.2825 51.4806 51.2232 51.4806ZM56.1139 39.64C56.1139 38.0956 55.3417 37.066 54.5695 36.0364C53.5399 35.2642 52.5102 34.7494 51.2232 34.7494C50.451 34.7494 49.9362 34.7494 49.4214 35.0068C48.9066 35.2642 48.3918 35.5216 47.877 36.0364C47.3622 36.5512 47.1048 37.066 46.8474 37.5808C46.59 38.0956 46.3326 38.8678 46.3326 39.64H56.1139Z" fill="white"/>
<path d="M44.532 25.483H57.4021V28.8292H44.532V25.483Z" fill="white"/>
</g>
<defs>
<radialGradient id="paint0_radial_1_30" cx="0" cy="0" r="1" gradientUnits="userSpaceOnUse" gradientTransform="translate(54.2327 58.9338) scale(54.0547 54.0547)">
<stop stop-color="#000056"/>
<stop offset="0.2482" stop-color="#4C4C88" stop-opacity="0.7518"/>
<stop offset="0.5193" stop-color="#9898BB" stop-opacity="0.4807"/>
<stop offset="0.744" stop-color="#D0D0E0" stop-opacity="0.256"/>
<stop offset="0.9103" stop-color="#F2F2F6" stop-opacity="0.0897143"/>
<stop offset="1" stop-color="white" stop-opacity="0"/>
</radialGradient>
<linearGradient id="paint1_linear_1_30" x1="64.2486" y1="11.0233" x2="11.0233" y2="64.2486" gradientUnits="userSpaceOnUse">
<stop stop-color="#006EF5"/>
<stop offset="0.7752" stop-color="#2131AE"/>
<stop offset="1" stop-color="#2B1E99"/>
</linearGradient>
<clipPath id="clip0_1_30">
<rect width="108.367" height="113" fill="white"/>
</clipPath>
</defs>
</svg>
