<svg width="172" height="89" viewBox="0 0 172 89" fill="none" xmlns="http://www.w3.org/2000/svg">
<path fill-rule="evenodd" clip-rule="evenodd" d="M2.36603 24.881C2.55283 24.3282 2.75494 23.7849 2.97171 23.2514C3.05318 22.9474 3.1378 22.6434 3.2256 22.3396L3.34522 22.3742C9.2651 9.08793 24.4413 2.25223 38.4968 7.00209C47.473 10.0355 53.9463 17.1027 56.5794 25.5008C58.3606 25.742 60.1447 26.1559 61.9111 26.7528C62.2911 26.8813 62.6666 27.0169 63.0375 27.1596C67.9896 20.1817 75.845 15.8228 84.2904 15.2275C93.715 14.3679 102.488 18.1998 108.296 24.801C110.022 24.2988 111.82 23.9533 113.677 23.7822C114.076 23.7454 114.475 23.717 114.872 23.6969C117.301 11.6772 127.363 2.15455 140.202 0.971576C155.878 -0.47294 169.757 11.0644 171.202 26.7409C171.269 27.4723 171.308 28.1997 171.32 28.9221C174.362 54.5171 156.343 77.9324 130.701 81.452L111.645 84.0675C104.273 85.0793 97.0649 84.3378 90.441 82.1621C79.7593 88.1607 66.772 90.0401 54.0732 86.3697L35.5956 81.029C16.5401 75.5213 3.60231 59.0975 1.61628 40.5221C0.434865 35.5106 0.59624 30.118 2.36603 24.881Z" fill="white"/>
</svg>
