<svg width="95" height="77" viewBox="0 0 95 77" fill="none" xmlns="http://www.w3.org/2000/svg">
<path fill-rule="evenodd" clip-rule="evenodd" d="M4.76635 11.3996C4.49839 11.8078 4.241 12.2265 3.99477 12.6555C1.65986 16.7243 0.638276 21.1872 0.797223 25.5536C-0.60564 41.3461 7.46403 57.1492 22.4233 64.8699L36.9288 72.3564C56.4494 82.4314 80.3916 74.971 90.7733 55.7146C91.1169 55.2084 91.4441 54.6854 91.7536 54.1461C98.4036 42.5579 94.4004 27.7729 82.8123 21.1229C73.3221 15.6769 61.6878 17.3757 54.1336 24.5343C53.8483 24.3546 53.558 24.1798 53.2628 24.0104C51.8903 23.2228 50.473 22.5847 49.0297 22.0908C48.2192 14.6655 43.9923 7.71653 37.0179 3.71421C26.0971 -2.55282 12.3372 0.641599 5.22251 10.7294L5.12843 10.6809C5.00512 10.9198 4.88443 11.1594 4.76635 11.3996Z" fill="white"/>
</svg>
