<svg width="108" height="113" viewBox="0 0 108 113" fill="none" xmlns="http://www.w3.org/2000/svg">
<g clip-path="url(#clip0_1_61)">
<path opacity="0.8" d="M54 113C83.8234 113 108 88.6661 108 58.6487C108 28.6314 83.8234 4.29749 54 4.29749C24.1766 4.29749 0 28.6314 0 58.6487C0 88.6661 24.1766 113 54 113Z" fill="url(#paint0_radial_1_61)"/>
<path d="M77.6087 36.9083C77.6087 16.4318 61.032 0 40.9389 0C20.8459 0 4.01802 16.4318 4.01802 36.9083C4.01802 55.3624 17.5808 70.783 35.1622 73.5638V47.5257H25.8692V36.9083H35.1622V28.8188C35.1622 19.4653 40.6878 14.4094 48.9762 14.4094C52.9948 14.4094 57.2645 15.1678 57.2645 15.1678V24.2685H52.7436C48.2227 24.2685 46.7157 27.0492 46.7157 30.0828V36.9083H57.0134L55.2552 47.5257H46.7157V73.311C64.0459 70.783 77.6087 55.3624 77.6087 36.9083Z" fill="url(#paint1_linear_1_61)"/>
<path d="M55.2546 47.5256L56.7616 36.9082H46.4639V30.0827C46.4639 27.0491 47.9709 24.2684 52.4918 24.2684H57.0128V15.1677C57.0128 15.1677 52.743 14.4093 48.7244 14.4093C40.436 14.4093 34.9105 19.4652 34.9105 28.8187V36.9082H25.6174V47.5256H35.1616V73.3109C36.9198 73.5637 38.9291 73.8165 40.9384 73.8165C42.9477 73.8165 44.7058 73.5637 46.7151 73.3109V47.5256H55.2546Z" fill="white"/>
</g>
<defs>
<radialGradient id="paint0_radial_1_61" cx="0" cy="0" r="1" gradientUnits="userSpaceOnUse" gradientTransform="translate(54 58.6148) scale(54 54.3512)">
<stop stop-color="#000056"/>
<stop offset="0.2482" stop-color="#4C4C88" stop-opacity="0.7518"/>
<stop offset="0.5193" stop-color="#9898BB" stop-opacity="0.4807"/>
<stop offset="0.744" stop-color="#D0D0E0" stop-opacity="0.256"/>
<stop offset="0.9103" stop-color="#F2F2F6" stop-opacity="0.0897143"/>
<stop offset="1" stop-color="white" stop-opacity="0"/>
</radialGradient>
<linearGradient id="paint1_linear_1_61" x1="14.8698" y1="10.826" x2="67.1409" y2="62.7596" gradientUnits="userSpaceOnUse">
<stop stop-color="#4676ED"/>
<stop offset="0.1854" stop-color="#436DE4"/>
<stop offset="0.487" stop-color="#3C55CD"/>
<stop offset="0.8651" stop-color="#302EA8"/>
<stop offset="1" stop-color="#2B1E99"/>
</linearGradient>
<clipPath id="clip0_1_61">
<rect width="108" height="113" fill="white"/>
</clipPath>
</defs>
</svg>
