<svg width="54" height="52" viewBox="0 0 54 52" fill="none" xmlns="http://www.w3.org/2000/svg">
<g filter="url(#filter0_d_1_1692)">
<path d="M45.662 23.8877C45.6467 22.5166 45.6417 21.1354 45.6366 19.7592H41.5335C41.5182 21.1303 41.5081 22.5065 41.4979 23.8877C40.1167 23.8928 38.7456 23.903 37.3745 23.9182V28.0264C38.7456 28.0416 40.1268 28.0518 41.4979 28.067C41.5131 29.4381 41.5131 30.8143 41.5233 32.1854H45.6315C45.6366 30.8143 45.6467 29.4381 45.6569 28.0569C47.0381 28.0416 48.4092 28.0366 49.7803 28.0213V23.9131C48.4143 23.903 47.0331 23.903 45.662 23.8877ZM18.7479 23.908C18.7428 25.5483 18.7479 27.1936 18.753 28.8338C21.5053 28.9252 24.2628 28.8846 27.0151 28.9252C25.8014 35.0342 17.4987 37.0147 13.1061 33.0233C8.58658 29.5244 8.79986 21.8514 13.4971 18.6014C16.7827 15.9811 21.4495 16.626 24.735 18.8959C26.0249 17.7026 27.2335 16.4229 28.3963 15.1026C25.6643 12.9241 22.3128 11.3702 18.7479 11.5327C11.3034 11.2838 4.46314 17.8041 4.34127 25.2537C3.86392 31.3424 7.86549 37.3092 13.5124 39.4623C19.1389 41.6307 26.3549 40.153 29.9502 35.0951C32.3217 31.901 32.8346 27.7877 32.5553 23.9233C27.9495 23.8877 23.3487 23.8928 18.7479 23.908Z" fill="#F2F2F2"/>
</g>
<defs>
<filter id="filter0_d_1_1692" x="-3" y="0" width="60" height="60" filterUnits="userSpaceOnUse" color-interpolation-filters="sRGB">
<feFlood flood-opacity="0" result="BackgroundImageFix"/>
<feColorMatrix in="SourceAlpha" type="matrix" values="0 0 0 0 0 0 0 0 0 0 0 0 0 0 0 0 0 0 127 0" result="hardAlpha"/>
<feOffset dy="4"/>
<feGaussianBlur stdDeviation="2"/>
<feComposite in2="hardAlpha" operator="out"/>
<feColorMatrix type="matrix" values="0 0 0 0 0 0 0 0 0 0 0 0 0 0 0 0 0 0 0.25 0"/>
<feBlend mode="normal" in2="BackgroundImageFix" result="effect1_dropShadow_1_1692"/>
<feBlend mode="normal" in="SourceGraphic" in2="effect1_dropShadow_1_1692" result="shape"/>
</filter>
</defs>
</svg>
