<svg width="108" height="113" viewBox="0 0 108 113" fill="none" xmlns="http://www.w3.org/2000/svg">
<g clip-path="url(#clip0_1_53)">
<path opacity="0.8" d="M53.6878 113C83.3387 113 107.376 88.9631 107.376 59.3121C107.376 29.6612 83.3387 5.62433 53.6878 5.62433C24.0368 5.62433 0 29.6612 0 59.3121C0 88.9631 24.0368 113 53.6878 113Z" fill="url(#paint0_radial_1_53)"/>
<path d="M39.1142 74.6516C59.7286 74.6516 76.44 57.9403 76.44 37.3258C76.44 16.7113 59.7286 0 39.1142 0C18.4997 0 1.78838 16.7113 1.78838 37.3258C1.78838 57.9403 18.4997 74.6516 39.1142 74.6516Z" fill="url(#paint1_linear_1_53)"/>
<path d="M50.8762 23.2646C49.3422 23.2646 48.3196 24.2873 48.3196 25.8212C48.3196 27.3551 49.3422 28.3778 50.8762 28.3778C52.4101 28.3778 53.4327 27.3551 53.4327 25.8212C53.4327 24.2873 52.1544 23.2646 50.8762 23.2646Z" fill="white"/>
<path d="M39.3698 26.5883C33.4897 26.5883 28.6323 31.4457 28.6323 37.3258C28.6323 43.2059 33.4897 48.0634 39.3698 48.0634C45.2499 48.0634 50.1074 43.2059 50.1074 37.3258C50.1074 31.4457 45.2499 26.5883 39.3698 26.5883ZM39.3698 44.2285C35.535 44.2285 32.4671 41.1607 32.4671 37.3258C32.4671 33.491 35.535 30.4231 39.3698 30.4231C43.2047 30.4231 46.2725 33.491 46.2725 37.3258C46.2725 41.1607 43.2047 44.2285 39.3698 44.2285Z" fill="white"/>
<path d="M48.0628 59.3122H30.6781C23.5198 59.3122 17.6397 53.4321 17.6397 46.2737V28.8891C17.384 21.2194 23.2641 15.3394 30.4225 15.3394H47.8071C54.9655 15.3394 60.8456 21.2194 60.8456 28.3778V46.0181C61.1012 53.4321 55.2211 59.3122 48.0628 59.3122ZM30.4225 19.4299C25.3094 19.4299 21.4745 23.5204 21.4745 28.3778V46.0181C21.4745 51.1312 25.565 54.9661 30.4225 54.9661H47.8071C52.9202 54.9661 56.7551 50.8756 56.7551 46.0181V28.6335C56.7551 23.5204 52.6646 19.6855 47.8071 19.6855H30.4225V19.4299Z" fill="white"/>
</g>
<defs>
<radialGradient id="paint0_radial_1_53" cx="0" cy="0" r="1" gradientUnits="userSpaceOnUse" gradientTransform="translate(53.6878 59.2272) scale(53.6878 53.6878)">
<stop stop-color="#000056"/>
<stop offset="0.2482" stop-color="#4C4C88" stop-opacity="0.7518"/>
<stop offset="0.5193" stop-color="#9898BB" stop-opacity="0.4807"/>
<stop offset="0.744" stop-color="#D0D0E0" stop-opacity="0.256"/>
<stop offset="0.9103" stop-color="#F2F2F6" stop-opacity="0.0897143"/>
<stop offset="1" stop-color="white" stop-opacity="0"/>
</radialGradient>
<linearGradient id="paint1_linear_1_53" x1="65.6669" y1="10.9485" x2="12.8028" y2="63.8125" gradientUnits="userSpaceOnUse">
<stop offset="0.0011048" stop-color="#FBE18A"/>
<stop offset="0.2094" stop-color="#FCBB45"/>
<stop offset="0.3765" stop-color="#F75274"/>
<stop offset="0.5238" stop-color="#D53692"/>
<stop offset="0.7394" stop-color="#8F39CE"/>
<stop offset="1" stop-color="#5B4FE9"/>
</linearGradient>
<clipPath id="clip0_1_53">
<rect width="107.376" height="113" fill="white"/>
</clipPath>
</defs>
</svg>
