<svg width="38" height="38" viewBox="0 0 38 38" fill="none" xmlns="http://www.w3.org/2000/svg">
<path d="M19.0001 14.0535C16.2763 14.0535 14.0534 16.2764 14.0534 19.0002C14.0534 21.724 16.2763 23.9469 19.0001 23.9469C21.7239 23.9469 23.9468 21.724 23.9468 19.0002C23.9468 16.2764 21.7239 14.0535 19.0001 14.0535ZM33.8364 19.0002C33.8364 16.9518 33.855 14.9219 33.74 12.8772C33.6249 10.5022 33.0831 8.39436 31.3464 6.65765C29.606 4.91722 27.5019 4.37913 25.1269 4.26409C23.0784 4.14905 21.0485 4.16761 19.0038 4.16761C16.9554 4.16761 14.9255 4.14905 12.8808 4.26409C10.5058 4.37913 8.39797 4.92093 6.66125 6.65765C4.92082 8.39808 4.38273 10.5022 4.26769 12.8772C4.15265 14.9256 4.17121 16.9555 4.17121 19.0002C4.17121 21.0449 4.15265 23.0785 4.26769 25.1233C4.38273 27.4983 4.92453 29.6061 6.66125 31.3428C8.40168 33.0832 10.5058 33.6213 12.8808 33.7364C14.9292 33.8514 16.9591 33.8328 19.0038 33.8328C21.0523 33.8328 23.0821 33.8514 25.1269 33.7364C27.5019 33.6213 29.6097 33.0795 31.3464 31.3428C33.0868 29.6024 33.6249 27.4983 33.74 25.1233C33.8587 23.0785 33.8364 21.0487 33.8364 19.0002ZM19.0001 26.6114C14.7882 26.6114 11.389 23.2121 11.389 19.0002C11.389 14.7883 14.7882 11.3891 19.0001 11.3891C23.212 11.3891 26.6112 14.7883 26.6112 19.0002C26.6112 23.2121 23.212 26.6114 19.0001 26.6114ZM26.923 12.8549C25.9396 12.8549 25.1454 12.0608 25.1454 11.0774C25.1454 10.094 25.9396 9.29983 26.923 9.29983C27.9064 9.29983 28.7005 10.094 28.7005 11.0774C28.7008 11.3109 28.655 11.5422 28.5658 11.758C28.4766 11.9737 28.3456 12.1698 28.1805 12.3349C28.0154 12.5001 27.8193 12.631 27.6035 12.7202C27.3878 12.8094 27.1565 12.8552 26.923 12.8549Z" fill="#F2F2F2"/>
</svg>
