<svg width="107" height="113" viewBox="0 0 107 113" fill="none" xmlns="http://www.w3.org/2000/svg">
<g clip-path="url(#clip0_1_19)">
<path opacity="0.8" d="M52.8692 113C82.6203 113 106.738 88.8821 106.738 59.131C106.738 29.3798 82.6203 5.26178 52.8692 5.26178C23.1181 5.26178 -1 29.3798 -1 59.131C-1 88.8821 23.1181 113 52.8692 113Z" fill="url(#paint0_radial_1_19)"/>
<path d="M39.8392 73.1619C60.0423 73.1619 76.4201 56.784 76.4201 36.5809C76.4201 16.3778 60.0423 0 39.8392 0C19.6361 0 3.25824 16.3778 3.25824 36.5809C3.25824 56.784 19.6361 73.1619 39.8392 73.1619Z" fill="url(#paint1_linear_1_19)"/>
<path d="M24.3066 29.8158H31.5727V52.6163H24.5571V29.8158H24.3066ZM27.8143 18.5409C30.0693 18.5409 31.8232 20.2948 31.8232 22.5498C31.8232 24.8048 30.0693 26.5586 27.8143 26.5586C25.5594 26.5586 23.8055 24.8048 23.8055 22.5498C23.8055 20.2948 25.5594 18.5409 27.8143 18.5409Z" fill="white"/>
<path d="M35.8303 29.8161H42.5953V32.8228C43.5975 31.0689 45.8525 29.0645 49.3603 29.0645C56.6263 29.0645 57.8791 33.825 57.8791 39.8383V52.366H50.8636V41.3416C50.8636 38.5855 50.8636 35.3283 47.1053 35.3283C43.347 35.3283 42.8458 38.0844 42.8458 41.0911V52.6166H35.8303V29.8161Z" fill="white"/>
</g>
<defs>
<radialGradient id="paint0_radial_1_19" cx="0" cy="0" r="1" gradientUnits="userSpaceOnUse" gradientTransform="translate(52.8692 59.1387) scale(53.8692)">
<stop stop-color="#000056"/>
<stop offset="0.2482" stop-color="#4C4C88" stop-opacity="0.7518"/>
<stop offset="0.5193" stop-color="#9898BB" stop-opacity="0.4807"/>
<stop offset="0.744" stop-color="#D0D0E0" stop-opacity="0.256"/>
<stop offset="0.9103" stop-color="#F2F2F6" stop-opacity="0.0897143"/>
<stop offset="1" stop-color="white" stop-opacity="0"/>
</radialGradient>
<linearGradient id="paint1_linear_1_19" x1="65.642" y1="10.73" x2="13.8329" y2="62.5391" gradientUnits="userSpaceOnUse">
<stop stop-color="#007AB5"/>
<stop offset="1" stop-color="#0046E5"/>
</linearGradient>
<clipPath id="clip0_1_19">
<rect width="107.738" height="113" fill="white" transform="translate(-1)"/>
</clipPath>
</defs>
</svg>
