<svg width="103" height="119" viewBox="0 0 103 119" fill="none" xmlns="http://www.w3.org/2000/svg">
<g clip-path="url(#clip0_1_25)">
<path opacity="0.8" d="M56.807 119C88.0323 119 113.345 93.6868 113.345 62.4614C113.345 31.2361 88.0323 5.92297 56.807 5.92297C25.5817 5.92297 0.268555 31.2361 0.268555 62.4614C0.268555 93.6868 25.5817 119 56.807 119Z" fill="url(#paint0_radial_1_25)"/>
<path d="M39.3077 78.6154C61.0167 78.6154 78.6154 61.0167 78.6154 39.3077C78.6154 17.5987 61.0167 0 39.3077 0C17.5987 0 0 17.5987 0 39.3077C0 61.0167 17.5987 78.6154 39.3077 78.6154Z" fill="url(#paint1_linear_1_25)"/>
<path fill-rule="evenodd" clip-rule="evenodd" d="M36.3472 47.923C36.3472 48.1922 36.3472 48.1922 36.3472 48.1922C34.4626 55.1922 34.4626 56.5384 32.578 59.7692C31.7703 61.3846 30.6933 62.7307 29.6164 64.0769C29.6164 64.3461 29.3472 64.3461 29.078 64.3461C28.8087 64.3461 28.8087 64.0769 28.8087 63.8076C28.5395 61.6538 28.2703 59.4999 28.5395 57.6153C28.5395 54.923 29.078 53.8461 32.578 39.0384C32.578 38.7692 32.578 38.4999 32.578 38.4999C31.7703 36.3461 31.501 33.923 32.3087 31.4999C33.9241 26.3845 39.578 26.1153 40.6549 30.1538C41.1933 32.8461 39.578 36.0769 38.501 41.1922C37.4241 45.2307 42.2703 48.1922 46.578 45.2307C50.3472 42.5384 51.9626 35.8076 51.6933 30.9615C51.1549 21.5384 40.9241 19.3845 34.1933 22.6153C26.6549 26.1153 25.0395 35.5384 28.2703 39.5769C28.8087 40.1153 29.078 40.3845 28.8087 40.923C28.5395 41.7307 28.2703 42.5384 28.2703 43.6153C28.001 44.1538 27.4626 44.423 26.9241 44.1538C25.3087 43.8845 24.2318 43.0769 23.4241 41.9999C20.4626 38.4999 19.6549 31.2307 23.4241 25.3076C27.7318 18.8461 35.5395 16.1538 42.8087 16.9615C51.4241 18.0384 56.8087 23.6922 57.8857 30.423C58.4241 33.3845 57.8857 40.923 53.8472 46.3076C49.001 52.4999 40.9241 52.7692 37.4241 48.9999C36.8857 48.7307 36.6164 48.1922 36.3472 47.923Z" fill="white"/>
</g>
<defs>
<radialGradient id="paint0_radial_1_25" cx="0" cy="0" r="1" gradientUnits="userSpaceOnUse" gradientTransform="translate(56.7244 62.3718) scale(56.5385 56.5385)">
<stop stop-color="#000056"/>
<stop offset="0.2482" stop-color="#4C4C88" stop-opacity="0.7518"/>
<stop offset="0.5193" stop-color="#9898BB" stop-opacity="0.4807"/>
<stop offset="0.744" stop-color="#D0D0E0" stop-opacity="0.256"/>
<stop offset="0.9103" stop-color="#F2F2F6" stop-opacity="0.0897143"/>
<stop offset="1" stop-color="white" stop-opacity="0"/>
</radialGradient>
<linearGradient id="paint1_linear_1_25" x1="67.2008" y1="11.5298" x2="11.5298" y2="67.2005" gradientUnits="userSpaceOnUse">
<stop stop-color="#FC4D3F"/>
<stop offset="1" stop-color="#CD083F"/>
</linearGradient>
<clipPath id="clip0_1_25">
<rect width="113.346" height="119" fill="white"/>
</clipPath>
</defs>
</svg>
