<svg width="108" height="113" viewBox="0 0 108 113" fill="none" xmlns="http://www.w3.org/2000/svg">
<g clip-path="url(#clip0_1_48)">
<path opacity="0.8" d="M53.6878 113C83.3387 113 107.376 88.9631 107.376 59.3121C107.376 29.6612 83.3387 5.62433 53.6878 5.62433C24.0368 5.62433 0 29.6612 0 59.3121C0 88.9631 24.0368 113 53.6878 113Z" fill="url(#paint0_radial_1_48)"/>
<path d="M38.094 74.6516C58.7084 74.6516 75.4198 57.9403 75.4198 37.3258C75.4198 16.7113 58.7084 0 38.094 0C17.4795 0 0.768185 16.7113 0.768185 37.3258C0.768185 57.9403 17.4795 74.6516 38.094 74.6516Z" fill="url(#paint1_linear_1_48)"/>
<path d="M58.7997 24.543C57.5214 25.0543 55.9875 25.5656 54.7092 25.8213C55.4762 25.8213 56.2431 24.543 56.7544 24.0317C57.2658 23.2647 57.7771 22.4978 58.0327 21.4751V21.2195H57.7771C56.2431 21.9865 54.7092 22.7534 52.9196 23.0091C52.6639 23.0091 52.6639 23.0091 52.6639 23.0091C52.4083 22.7534 52.4083 22.7534 52.1526 22.4978C51.3857 21.9865 50.6187 21.4751 49.8517 20.9638C48.8291 20.7082 47.5508 20.4525 46.2725 20.4525C44.9943 20.4525 43.9716 20.9638 42.949 21.4751C41.9264 21.9865 40.9038 22.7534 40.1368 23.776C39.3698 24.7987 38.8585 25.8213 38.6029 27.0996C38.3472 28.3779 38.3472 29.4005 38.6029 30.6788C38.6029 30.9344 38.6029 30.9344 38.3472 30.9344C31.7001 29.9118 26.0757 27.6109 21.4739 22.4978C21.2182 22.2421 21.2182 22.2421 20.9626 22.4978C18.9173 25.5656 19.94 30.1674 22.4965 32.4684C22.7522 32.724 23.0078 32.9797 23.2635 33.2353C23.0078 33.2353 21.4739 32.9797 19.94 32.2127C19.6843 32.2127 19.6843 32.2127 19.6843 32.4684C19.6843 32.724 19.6843 32.9797 19.6843 33.491C19.94 36.5588 22.2409 39.3711 25.0531 40.3937C25.3087 40.6493 25.82 40.6493 26.0757 40.6493C25.5644 40.905 24.7974 40.905 23.0078 40.905C22.7522 40.905 22.7522 40.905 22.7522 41.1607C24.0305 44.9955 27.0983 46.0181 29.3992 46.7851C29.6549 46.7851 29.9105 46.7851 30.4219 46.7851C29.6549 47.8077 27.0983 48.8303 25.82 49.086C23.5191 49.853 21.2182 50.1086 18.9173 49.853C18.6617 49.853 18.406 49.853 18.406 49.853V50.1086C18.9173 50.3643 19.4286 50.6199 19.94 50.8756C21.4739 51.6426 23.0078 52.4095 24.5418 52.6652C32.9784 54.9661 42.182 53.1765 48.5734 47.0407C53.4309 42.1833 55.2205 35.5362 55.2205 28.6335C55.2205 28.3779 55.4762 28.1222 55.7318 28.1222C57.0101 27.0996 58.0327 26.0769 59.0553 24.7987C59.0553 25.0543 59.0553 24.7987 58.7997 24.543C59.0553 24.543 59.0553 24.543 58.7997 24.543C59.0553 24.543 59.0553 24.543 58.7997 24.543Z" fill="white"/>
</g>
<defs>
<radialGradient id="paint0_radial_1_48" cx="0" cy="0" r="1" gradientUnits="userSpaceOnUse" gradientTransform="translate(53.6878 59.2272) scale(53.6878 53.6878)">
<stop stop-color="#000056"/>
<stop offset="0.2482" stop-color="#4C4C88" stop-opacity="0.7518"/>
<stop offset="0.5193" stop-color="#9898BB" stop-opacity="0.4807"/>
<stop offset="0.744" stop-color="#D0D0E0" stop-opacity="0.256"/>
<stop offset="0.9103" stop-color="#F2F2F6" stop-opacity="0.0897143"/>
<stop offset="1" stop-color="white" stop-opacity="0"/>
</radialGradient>
<linearGradient id="paint1_linear_1_48" x1="64.6528" y1="10.9485" x2="11.789" y2="63.8125" gradientUnits="userSpaceOnUse">
<stop stop-color="#33CCFF"/>
<stop offset="1" stop-color="#337FFF"/>
</linearGradient>
<clipPath id="clip0_1_48">
<rect width="107.376" height="113" fill="white"/>
</clipPath>
</defs>
</svg>
