<svg width="42" height="42" viewBox="0 0 42 42" fill="none" xmlns="http://www.w3.org/2000/svg">
<path d="M38.0623 10.4303C36.8073 10.9717 35.4414 11.3613 34.0346 11.5131C35.4952 10.6454 36.589 9.27447 37.1108 7.65763C35.7402 8.47298 34.2387 9.04472 32.6729 9.34748C32.0184 8.64786 31.227 8.09051 30.3477 7.71016C29.4685 7.32982 28.5203 7.13462 27.5623 7.13674C23.6864 7.13674 20.5692 10.2785 20.5692 14.134C20.5692 14.6754 20.6348 15.2168 20.7414 15.7377C14.9377 15.4342 9.76155 12.6615 6.32034 8.41642C5.69331 9.4874 5.36473 10.7068 5.36877 11.9479C5.36877 14.376 6.60334 16.517 8.48596 17.7762C7.37651 17.7325 6.29303 17.4275 5.32366 16.8861V16.9723C5.32366 20.3725 7.72717 23.1903 10.9305 23.8383C10.329 23.9945 9.71031 24.0745 9.08889 24.0762C8.63362 24.0762 8.20295 24.0311 7.76819 23.9695C8.65413 26.7422 11.234 28.7561 14.3061 28.8217C11.9026 30.7043 8.89202 31.8117 5.62307 31.8117C5.03655 31.8117 4.49514 31.7912 3.93323 31.7256C7.03401 33.7149 10.7131 34.8633 14.6752 34.8633C27.5377 34.8633 34.576 24.2074 34.576 14.9584C34.576 14.6549 34.576 14.3514 34.5555 14.0479C35.9172 13.0512 37.1108 11.8166 38.0623 10.4303Z" fill="#F2F2F2"/>
</svg>
