<svg width="109" height="113" viewBox="0 0 109 113" fill="none" xmlns="http://www.w3.org/2000/svg">
<g clip-path="url(#clip0_1_37)">
<path opacity="0.8" d="M54.0547 113C83.9082 113 108.109 88.7989 108.109 58.9454C108.109 29.0918 83.9082 4.89069 54.0547 4.89069C24.2011 4.89069 0 29.0918 0 58.9454C0 88.7989 24.2011 113 54.0547 113Z" fill="url(#paint0_radial_1_37)"/>
<path d="M38.3543 75.1617C59.1096 75.1617 75.9352 58.3362 75.9352 37.5809C75.9352 16.8255 59.1096 0 38.3543 0C17.599 0 0.773438 16.8255 0.773438 37.5809C0.773438 58.3362 17.599 75.1617 38.3543 75.1617Z" fill="url(#paint1_linear_1_37)"/>
<path d="M18.0182 58.9454L21.1071 47.3622C19.3053 44.2734 18.2757 40.6697 18.2757 36.8087C18.2757 24.9681 28.057 15.1868 39.8975 15.1868C51.7381 15.1868 61.5194 24.9681 61.5194 36.8087C61.5194 48.6492 51.7381 58.4306 39.8975 58.4306C36.2939 58.4306 32.6902 57.401 29.6014 55.8565L18.0182 58.9454ZM30.3736 51.4807L31.1458 51.9955C33.9772 53.5399 37.0661 54.5695 40.1549 54.5695C49.9362 54.5695 57.6583 46.59 57.6583 37.0661C57.6583 27.5422 49.6788 19.5627 40.1549 19.5627C30.3736 19.5627 22.6515 27.5422 22.6515 37.0661C22.6515 40.1549 23.4237 43.5012 25.2255 46.0752L25.7403 46.8474L23.9385 53.2825L30.3736 51.4807Z" fill="white"/>
<path fill-rule="evenodd" clip-rule="evenodd" d="M48.1338 39.8976C47.3616 39.3827 46.0746 38.8679 45.0449 39.1253C44.2727 39.3827 43.7579 40.6698 43.2431 41.442C42.9857 41.6994 42.7283 41.6994 42.2135 41.6994C39.1247 40.4124 36.808 38.3531 35.2636 35.7791C35.0062 35.2643 35.0062 35.0069 35.2636 34.4921C35.7784 33.9773 36.2932 33.2051 36.5506 32.4329C36.808 31.6607 36.2932 30.631 36.0358 30.1162C35.521 29.0866 35.2636 27.7996 34.234 27.2848C33.4618 26.77 32.1748 27.0274 31.66 27.7996C30.373 28.8292 29.8582 30.3736 29.8582 32.1755C29.8582 32.6903 29.8582 33.2051 30.1156 33.4625C30.373 34.4921 30.8878 35.5217 31.4026 36.5513C31.9174 37.3235 32.1748 37.8383 32.6896 38.6105C34.234 40.9272 36.2932 42.729 38.6099 44.016C39.8969 44.7882 40.9265 45.303 42.2135 45.8178C43.7579 46.3326 45.0449 46.8474 46.5894 46.59C48.1338 46.3326 49.9356 45.303 50.4504 43.7586C50.7078 43.2438 50.7078 42.729 50.7078 42.2142C50.4504 40.9272 49.1634 40.4124 48.1338 39.8976Z" fill="white"/>
</g>
<defs>
<radialGradient id="paint0_radial_1_37" cx="0" cy="0" r="1" gradientUnits="userSpaceOnUse" gradientTransform="translate(54.0547 58.9335) scale(54.0547 54.0547)">
<stop stop-color="#000056"/>
<stop offset="0.2482" stop-color="#4C4C88" stop-opacity="0.7518"/>
<stop offset="0.5193" stop-color="#9898BB" stop-opacity="0.4807"/>
<stop offset="0.744" stop-color="#D0D0E0" stop-opacity="0.256"/>
<stop offset="0.9103" stop-color="#F2F2F6" stop-opacity="0.0897143"/>
<stop offset="1" stop-color="white" stop-opacity="0"/>
</radialGradient>
<linearGradient id="paint1_linear_1_37" x1="65.0946" y1="11.0233" x2="11.8696" y2="64.2484" gradientUnits="userSpaceOnUse">
<stop stop-color="#60FC7C"/>
<stop offset="1" stop-color="#4AB161"/>
</linearGradient>
<clipPath id="clip0_1_37">
<rect width="108.109" height="113" fill="white"/>
</clipPath>
</defs>
</svg>
