<svg width="109" height="113" viewBox="0 0 109 113" fill="none" xmlns="http://www.w3.org/2000/svg">
<g clip-path="url(#clip0_1_43)">
<path opacity="0.8" d="M54.0547 113C83.9082 113 108.109 88.7989 108.109 58.9454C108.109 29.0918 83.9082 4.89069 54.0547 4.89069C24.2011 4.89069 0 29.0918 0 58.9454C0 88.7989 24.2011 113 54.0547 113Z" fill="url(#paint0_radial_1_43)"/>
<path d="M39.3815 75.1617C60.1368 75.1617 76.9623 58.3362 76.9623 37.5809C76.9623 16.8255 60.1368 0 39.3815 0C18.6261 0 1.8006 16.8255 1.8006 37.5809C1.8006 58.3362 18.6261 75.1617 39.3815 75.1617Z" fill="url(#paint1_linear_1_43)"/>
<path d="M59.7163 32.1754C59.7163 27.2847 55.5979 23.1663 50.7072 23.1663H27.5409C22.6502 23.1663 18.5318 27.2847 18.5318 32.1754V42.9863C18.5318 47.877 22.6502 51.9954 27.5409 51.9954H50.7072C55.5979 51.9954 59.7163 47.877 59.7163 42.9863V32.1754ZM46.0739 38.353L35.7778 43.5011C35.263 43.7585 33.976 43.5011 33.976 42.9863V32.4328C33.976 31.918 35.263 31.6606 35.7778 31.918L45.8165 37.3234C46.0739 37.5808 46.5887 38.0956 46.0739 38.353Z" fill="white"/>
</g>
<defs>
<radialGradient id="paint0_radial_1_43" cx="0" cy="0" r="1" gradientUnits="userSpaceOnUse" gradientTransform="translate(54.0547 58.9338) scale(54.0547 54.0547)">
<stop stop-color="#000056"/>
<stop offset="0.2482" stop-color="#4C4C88" stop-opacity="0.7518"/>
<stop offset="0.5193" stop-color="#9898BB" stop-opacity="0.4807"/>
<stop offset="0.744" stop-color="#D0D0E0" stop-opacity="0.256"/>
<stop offset="0.9103" stop-color="#F2F2F6" stop-opacity="0.0897143"/>
<stop offset="1" stop-color="white" stop-opacity="0"/>
</radialGradient>
<linearGradient id="paint1_linear_1_43" x1="66.1156" y1="11.0233" x2="12.8903" y2="64.2486" gradientUnits="userSpaceOnUse">
<stop stop-color="#FF0000"/>
<stop offset="1" stop-color="#850000"/>
</linearGradient>
<clipPath id="clip0_1_43">
<rect width="108.109" height="113" fill="white"/>
</clipPath>
</defs>
</svg>
